<svg width="424" height="162" viewBox="0 0 424 162" fill="none" xmlns="http://www.w3.org/2000/svg">
<path d="M284.36 1.2583C289.701 1.29663 292.114 6.21841 292.982 10.4579C294.711 18.9675 293.212 27.4158 291.883 35.7568C288.586 56.2795 284.744 76.718 281.286 97.2177C279.931 105.473 279.575 113.862 280.226 122.202C280.356 123.996 281.179 125.545 281.693 127.201C282.247 128.995 282.247 130.758 280.257 131.708C278.066 132.743 276.614 131.463 275.646 129.738C274.109 126.986 273.502 123.889 273.179 120.784C271.642 106.088 272.649 91.3913 273.479 76.7026C274.393 60.6493 275.861 44.6267 275.538 28.5274C275.492 26.2812 276.368 22.839 273.932 22.0954C271.051 21.2214 269.744 24.6406 268.369 26.6952C262.544 35.4578 258.471 45.148 253.945 54.5853C248.228 66.5064 242.811 78.5809 235.549 89.6894C233.359 93.0472 231 96.2978 227.588 98.5363C223.477 101.235 220.803 100.376 219.319 95.6998C217.738 90.3089 216.908 84.7265 216.853 79.1098C216.484 68.147 217.283 57.1535 216.2 46.206C216.084 45.01 215.9 43.8141 215.646 41.7978C212.573 46.2136 211.804 50.6371 210.69 54.8306C209.921 57.6901 208.054 60.634 210.044 63.7849C210.116 64.0146 210.126 64.2589 210.075 64.494C210.024 64.729 209.913 64.9469 209.752 65.1265C206.487 67.572 206.932 71.3132 206.387 74.6634C204.658 85.1126 203.021 95.5694 202.959 106.195C202.893 110.564 203.431 114.921 204.558 119.143C205.142 121.275 205.234 122.915 202.575 123.283C199.916 123.651 198.418 122.409 198.18 119.849C197.795 115.763 197.365 111.653 197.35 107.583C197.288 94.3735 196.666 81.1414 197.926 67.9553C198.21 64.9808 197.096 63.9305 194.168 64.0225C181.551 64.4288 168.925 64.7278 156.308 65.0498C154.363 65.1035 152.926 65.6171 152.681 67.9093C151.758 76.6336 151.605 85.3195 154.087 93.8445C155.954 100.246 159.673 101.994 165.752 99.1343C173.82 95.3471 180.175 89.3597 186.038 82.805C186.794 81.8153 187.666 80.9196 188.636 80.1371C189.234 79.6586 189.989 79.4174 190.755 79.4599C191.52 79.5023 192.244 79.8254 192.785 80.3671C194.261 81.9004 192.693 82.9047 191.74 83.7173C184.425 89.9424 177.563 96.7501 168.902 101.212C158.428 106.578 147.893 105.045 144.089 91.2456C143.962 90.8958 143.805 90.5573 143.621 90.2337C141.93 89.7047 141.162 91.1383 140.07 91.8283C133.861 95.7381 127.33 98.2143 119.845 96.3361C111.992 94.3581 108.88 87.4815 112.76 80.4208C115.357 75.6907 118.777 71.8038 124.533 70.8762C128.713 70.2016 132.786 72.0415 133.685 75.0007C134.699 78.3279 132.148 82.4984 128.098 84.0316C126.699 84.5682 125.233 84.9112 123.741 85.0512C122.395 85.065 121.05 84.9599 119.722 84.7369C118.185 89.536 120.567 93.6758 125.14 93.4612C131.948 93.1315 137.75 90.6323 141.277 84.2616C142.998 81.1951 142.43 77.9445 142.437 74.7477C142.483 65.6094 142.437 65.5481 133.423 65.7781C129.804 65.8624 126.192 66.1921 122.573 66.3147C121.454 66.3365 120.338 66.1918 119.261 65.8854C118.262 65.6018 117.425 64.8735 117.724 63.6852C118.024 62.4969 118.969 62.6426 119.868 62.7499C126.377 63.5165 132.824 61.9219 139.325 62.2516C141.907 62.3896 143.113 61.4083 143.452 58.6944C144.22 52.523 145.288 46.39 146.287 40.2416C146.802 37.0984 148.07 34.4842 151.62 33.8249C153.409 33.4606 155.262 33.5504 157.007 34.0862C158.753 34.622 160.335 35.5866 161.61 36.8914C163.147 38.3633 162.655 39.8889 161.518 41.5602C158.021 46.6736 156.1 52.4693 154.494 58.3877C153.872 60.6876 154.532 61.669 156.976 61.6153C169.84 61.3393 182.703 60.4577 195.582 60.8487C197.019 60.8487 198.072 60.3657 198.126 58.7787C198.41 50.9054 198.841 43.0551 193.976 36.0558C191.133 31.9619 191.671 28.9644 195.014 27.1398C199.002 24.9703 204.235 26.3272 206.072 30.0837C207.078 32.2413 207.563 34.6047 207.485 36.9834C207.485 39.4749 207.485 41.9665 207.485 44.4657C207.485 46.9649 207.485 49.4105 207.485 52.6457C208.915 46.7426 209.96 41.4988 212.265 36.6461C213.764 33.5029 215.746 31.226 219.704 31.6016C223.5 31.9696 225.398 34.3078 226.558 37.6044C228.356 42.7025 228.195 48.0229 227.473 53.1593C226.02 63.5165 224.253 73.8584 223.484 84.2769C223.2 88.1101 222.754 91.9433 224.652 95.6844C228.118 94.9178 229.609 92.2499 231.153 89.789C236.755 80.8808 240.774 71.1905 244.985 61.6153C251.509 46.9036 257.757 32.0616 265.825 18.0936C268.303 13.6088 271.345 9.45834 274.877 5.74311C277.421 3.15189 280.31 1.3733 284.345 1.31197M125.754 78.4122C126.07 76.9326 125.754 76.0126 124.087 76.9326C122.612 77.7529 121.221 78.7802 121.013 80.7658C123.242 81.4941 124.456 80.3365 125.754 78.4122Z" fill="black"/>
<path d="M101.057 12.9501C100.896 3.22924 99.935 2.46261 91.0673 4.89284C80.6626 7.75238 72.133 13.8854 64.3026 20.9308C46.6285 36.8537 32.7429 55.5902 23.8367 77.7613C19.4873 88.5784 17.2127 99.7483 19.9484 111.386C21.7696 119.106 25.3274 121.643 33.25 121.567C41.4262 121.49 48.9569 118.715 56.3877 115.794C64.5166 112.548 72.3116 108.525 79.6637 103.781C82.4454 102.01 84.2743 99.8403 84.9735 96.5208C86.5104 89.3221 89.0693 82.4377 92.2199 75.1624C88.2855 76.228 85.4654 78.2289 82.4377 79.8158C74.4383 83.925 66.2467 87.6201 57.4558 89.8434C54.4086 90.5503 51.258 90.6984 48.1577 90.2804C46.7899 90.127 45.4528 89.5751 45.084 87.9805C44.9678 87.6172 44.9808 87.2251 45.1208 86.8704C45.2608 86.5156 45.5192 86.2199 45.8524 86.0332C46.3841 85.6925 47.0093 85.5263 47.6405 85.5579C48.2716 85.5895 48.877 85.8174 49.3718 86.2095C51.2468 87.5588 53.1679 87.0528 55.1121 86.4779C69.0438 82.384 81.7154 75.745 93.5877 67.5114C94.7173 66.7448 95.8085 65.8861 96.9842 65.2115C101.141 62.7276 103.6 64.0769 103.846 68.968C103.977 71.5285 102.993 73.8591 102.125 76.1897C100.173 81.4258 97.9909 86.5775 96.454 92.7029C99.351 90.633 101.679 88.8698 104.138 87.2675C105.537 86.3475 107.212 85.7342 108.495 87.3978C109.694 88.9311 109.01 90.5103 107.927 91.8366C105.322 95.0181 101.426 96.4364 98.1753 98.698C96.8459 99.6333 95.3167 100.316 94.9094 102.102C91.1825 118.293 89.638 134.553 93.5339 150.952C94.1753 153.63 95.3658 156.146 97.0303 158.342C97.5529 159.032 98.1215 159.837 97.5452 160.734C96.8766 161.753 95.8085 161.562 94.8249 161.37C90.8982 160.604 88.5698 157.897 86.8562 154.578C82.9526 147.003 81.4772 138.801 81.1006 130.406C80.8163 123.338 80.5935 116.239 82.3916 108.733C75.5679 112.375 69.382 115.832 63.0577 119.014C51.5312 124.825 39.4206 128.428 26.3264 127.922C21.0663 127.783 15.8916 126.561 11.1267 124.334C2.67389 120.279 -1.28356 111.232 0.368581 100.569C2.87369 84.1166 10.3583 69.8496 19.7486 56.4565C33.1348 37.3597 49.0645 20.7928 69.2897 8.75666C77.0586 4.15686 85.2041 0.385036 94.5099 0.0170528C100.865 -0.235936 104.707 2.31695 106.728 8.28135C109.248 15.7713 108.219 23.3073 106.859 30.8127C105.16 40.2606 102.27 49.4564 98.2598 58.1815C97.3147 60.236 96.3541 62.5666 93.6492 62.4746C92.2069 62.4395 90.7857 62.1207 89.467 61.5366C88.1484 60.9525 86.9583 60.1146 85.9648 59.0708C84.9274 57.9898 85.3347 56.7709 86.1954 55.6899C95.309 44.1138 99.0283 30.5827 100.565 16.2313C100.673 15.25 100.88 14.2611 101.057 12.9501Z" fill="#E96E0E"/>
<path d="M401.024 102.577C408.931 98.4828 413.042 91.5295 416.762 84.2312C417.784 82.2302 418.521 78.8647 421.549 80.398C424.346 81.8086 422.617 84.5991 421.549 86.623C417.476 94.0977 412.128 100.422 404.52 104.555C395.299 109.584 387.699 107.215 383.073 97.9079C381.221 94.0626 379.927 89.9737 379.231 85.7644C377.325 87.9033 375.942 89.5592 374.459 91.1308C370.563 95.2247 366.36 98.9505 361.05 101.143C351.406 105.122 345.627 100.56 347.003 90.1419C347.226 88.4553 347.387 86.7687 347.687 84.1391C345.228 86.439 343.483 88.2023 341.655 89.8352C339.954 91.4829 338.133 93.0025 336.206 94.3814C331.726 97.3252 328.837 96.8269 324.457 92.5491C320.407 94.5423 316.181 96.3823 311.555 96.9496C304.285 97.8849 297.615 94.412 296.186 88.6163C294.711 82.6366 298.007 78.2974 301.934 74.4642C305.5 70.9837 309.841 69.7954 314.721 71.3977C316.742 72.057 318.271 73.345 318.478 75.5989C318.645 77.0343 318.408 78.4876 317.795 79.7967C317.182 81.1058 316.216 82.219 315.005 83.0122C311.747 85.3581 307.989 85.2278 304.293 84.8981C303.002 91.1308 306.322 94.4657 312.323 93.2391C318.609 91.9435 323.788 89.6206 325.709 82.5062C326.97 77.8451 330.32 74.2419 334.677 71.9037C338.942 69.6038 342.646 69.9948 346.035 73.1916C347.487 74.5639 348.64 74.9932 350.645 74.1269C353.527 72.8696 356.585 72.9387 359.098 75.1772C361.119 76.9865 361.227 79.2404 360.051 81.6629C358.514 84.7985 356.977 87.934 355.702 91.1768C355.041 92.8711 354.564 94.9257 356.293 96.3899C358.022 97.8542 359.782 97.3559 361.603 96.5969C368.519 93.699 373.353 88.279 378.079 82.7975C378.847 81.9006 378.847 80.7506 378.701 79.5854C377.51 68.9522 378.57 58.434 380.691 48.0231C381.835 42.2328 384.485 36.8445 388.376 32.3991C391.303 29.0489 395.115 27.5923 397.943 28.865C401.662 30.5362 402.622 33.9554 402.607 37.5662C402.546 53.1978 398.98 67.9402 390.888 81.4406C387.961 86.3317 389.129 98.2145 393.194 102.232C395.56 104.593 398.258 103.619 401.155 102.592M398.557 37.3746C398.404 36.5159 398.342 35.435 397.205 35.4656C395.776 35.4656 395.591 36.8839 395.261 37.8882C392.248 47.0265 391.073 56.5327 389.982 66.0236C389.651 68.9138 388.445 71.896 389.882 75.8748C395.576 63.2254 399.103 51.0819 398.557 37.3746ZM335.215 86.439C335.407 88.6623 336.329 89.5439 338.227 87.819C340.667 85.5247 342.647 82.7876 344.06 79.754C344.974 77.8988 344.114 76.3348 342.523 75.2769C340.748 74.0963 339.449 75.1695 338.458 76.5572C336.47 79.484 335.342 82.9066 335.2 86.439M308.427 80.628C309.611 79.662 311.048 78.8187 310.279 76.6568C308.066 77.4235 306.299 78.3204 305.738 80.5667C306.452 81.2873 307.175 80.9806 308.32 80.6126L308.427 80.628Z" fill="black"/>
</svg>
